<mxfile host="app.diagrams.net" modified="2022-08-26T14:32:16.733Z" agent="5.0 (Macintosh; Intel Mac OS X 10_15_7) AppleWebKit/537.36 (KHTML, like Gecko) Chrome/104.0.0.0 Safari/537.36" etag="fVI1a0Rdq1xLdPdZyaeJ" version="20.2.5" type="github">
  <diagram id="oIUFLj_rPUohdQi0wOY1" name="Page-1">
    <mxGraphModel dx="1525" dy="602" grid="0" gridSize="10" guides="1" tooltips="1" connect="1" arrows="1" fold="1" page="0" pageScale="1" pageWidth="1169" pageHeight="827" math="0" shadow="0">
      <root>
        <mxCell id="0" />
        <mxCell id="1" parent="0" />
        <mxCell id="xwJka6EbV5Eov9DDth98-9" style="edgeStyle=none;curved=1;rounded=0;orthogonalLoop=1;jettySize=auto;html=1;exitX=0;exitY=1;exitDx=0;exitDy=0;entryX=0.5;entryY=0;entryDx=0;entryDy=0;endArrow=open;startSize=14;endSize=14;sourcePerimeterSpacing=8;targetPerimeterSpacing=8;" edge="1" parent="1" source="xwJka6EbV5Eov9DDth98-1" target="xwJka6EbV5Eov9DDth98-8">
          <mxGeometry relative="1" as="geometry" />
        </mxCell>
        <mxCell id="xwJka6EbV5Eov9DDth98-10" style="edgeStyle=none;curved=1;rounded=0;orthogonalLoop=1;jettySize=auto;html=1;exitX=0;exitY=0.5;exitDx=0;exitDy=0;entryX=0.5;entryY=0;entryDx=0;entryDy=0;endArrow=open;startSize=14;endSize=14;sourcePerimeterSpacing=8;targetPerimeterSpacing=8;" edge="1" parent="1" source="xwJka6EbV5Eov9DDth98-1" target="xwJka6EbV5Eov9DDth98-7">
          <mxGeometry relative="1" as="geometry" />
        </mxCell>
        <mxCell id="xwJka6EbV5Eov9DDth98-11" style="edgeStyle=none;curved=1;rounded=0;orthogonalLoop=1;jettySize=auto;html=1;exitX=0.5;exitY=1;exitDx=0;exitDy=0;entryX=0.5;entryY=0;entryDx=0;entryDy=0;endArrow=open;startSize=14;endSize=14;sourcePerimeterSpacing=8;targetPerimeterSpacing=8;" edge="1" parent="1" source="xwJka6EbV5Eov9DDth98-1" target="xwJka6EbV5Eov9DDth98-4">
          <mxGeometry relative="1" as="geometry" />
        </mxCell>
        <mxCell id="xwJka6EbV5Eov9DDth98-13" style="edgeStyle=none;curved=1;rounded=0;orthogonalLoop=1;jettySize=auto;html=1;exitX=1;exitY=1;exitDx=0;exitDy=0;entryX=0.5;entryY=0;entryDx=0;entryDy=0;endArrow=open;startSize=14;endSize=14;sourcePerimeterSpacing=8;targetPerimeterSpacing=8;" edge="1" parent="1" source="xwJka6EbV5Eov9DDth98-1" target="xwJka6EbV5Eov9DDth98-3">
          <mxGeometry relative="1" as="geometry" />
        </mxCell>
        <mxCell id="xwJka6EbV5Eov9DDth98-14" style="edgeStyle=none;curved=1;rounded=0;orthogonalLoop=1;jettySize=auto;html=1;exitX=1;exitY=0.5;exitDx=0;exitDy=0;entryX=0.5;entryY=0;entryDx=0;entryDy=0;endArrow=open;startSize=14;endSize=14;sourcePerimeterSpacing=8;targetPerimeterSpacing=8;" edge="1" parent="1" source="xwJka6EbV5Eov9DDth98-1" target="xwJka6EbV5Eov9DDth98-2">
          <mxGeometry relative="1" as="geometry" />
        </mxCell>
        <mxCell id="xwJka6EbV5Eov9DDth98-1" value="Home page" style="rounded=0;whiteSpace=wrap;html=1;hachureGap=4;" vertex="1" parent="1">
          <mxGeometry x="168" y="49" width="160" height="80" as="geometry" />
        </mxCell>
        <mxCell id="xwJka6EbV5Eov9DDth98-2" value="Film" style="rounded=0;whiteSpace=wrap;html=1;hachureGap=4;" vertex="1" parent="1">
          <mxGeometry x="546" y="174" width="160" height="80" as="geometry" />
        </mxCell>
        <mxCell id="xwJka6EbV5Eov9DDth98-3" value="Journalism &amp;amp; Content" style="rounded=0;whiteSpace=wrap;html=1;hachureGap=4;" vertex="1" parent="1">
          <mxGeometry x="357" y="174" width="160" height="80" as="geometry" />
        </mxCell>
        <mxCell id="xwJka6EbV5Eov9DDth98-4" value="Technical writing" style="rounded=0;whiteSpace=wrap;html=1;hachureGap=4;" vertex="1" parent="1">
          <mxGeometry x="168" y="174" width="160" height="80" as="geometry" />
        </mxCell>
        <mxCell id="xwJka6EbV5Eov9DDth98-7" value="About me" style="rounded=0;whiteSpace=wrap;html=1;hachureGap=4;" vertex="1" parent="1">
          <mxGeometry x="-210" y="174" width="160" height="80" as="geometry" />
        </mxCell>
        <mxCell id="xwJka6EbV5Eov9DDth98-8" value="Resume" style="rounded=0;whiteSpace=wrap;html=1;hachureGap=4;" vertex="1" parent="1">
          <mxGeometry x="-21" y="174" width="160" height="80" as="geometry" />
        </mxCell>
      </root>
    </mxGraphModel>
  </diagram>
</mxfile>
